# xmcd
#
# Track frame offsets:
#	182
#	18392
#	35335
#	57967
#	77460
#	95462
#	119552
#	150095
#	171502
#	188812
#	210572
#	228602
#	248367
#
# Disc length: 3563 seconds
#
# Revision: 4
# Processed by: cddbd v1.5.2PL0 Copyright (c) Steve Scherf et al.
# Submitted via: audiograbber 1.83.01
#
DISCID=9a0de90d
DTITLE=Artisti Vari - Il Nuovo Soul 
DYEAR=1996
DGENRE=Soul
TTITLE0=Jesse Johnson (Featuring Sly Stone) - Crazay
TTITLE1=Mary J. Blige - Sweet Thing
TTITLE2=Bobby Brown - Two Can Play That Game
TTITLE3=Shanice Wilson - I Love Your Smile
TTITLE4=Rockwell - Somebody's Watching Me
TTITLE5=Jodeci - Forever My Lady
TTITLE6=Bobby Brown - Don't Be Cruel
TTITLE7=Freddie Jackson - You Are My Lady
TTITLE8=Crystal Waters - Gypsy Woman (La Da Dee La Da Da)
TTITLE9=Will Downing - A Love Supreme
TTITLE10=New Edition - Mr. Telephone Man
TTITLE11=Bell Biv Devoe - Poison
TTITLE12=Vanessa Williams - You Don't Have To Say You're Sorry
EXTD=
EXTT0=
EXTT1=
EXTT2=
EXTT3=
EXTT4=
EXTT5=
EXTT6=
EXTT7=
EXTT8=
EXTT9=
EXTT10=
EXTT11=
EXTT12=
PLAYORDER=
